<svg width="236" height="27" viewBox="0 0 236 27" fill="none" xmlns="http://www.w3.org/2000/svg">
<g clip-path="url(#clip0)">
<path d="M122.605 26.799H126.244V0.311005H122.605V26.799Z" fill="#040606"/>
<path d="M143.486 26.695C142.489 26.799 141.692 25.867 141.493 25.04C140.795 21.935 141.892 19.245 139.699 15.831C138.602 14.073 136.31 13.433 133.32 13.226V13.019C136.31 12.605 139.499 10.037 139.499 6.72701C139.499 3.001 136.109 0.311005 131.925 0.311005V0.518005C133.519 0.932005 135.114 3.207 135.114 6.726C135.114 10.347 134.516 12.416 131.726 13.141V13.347C133.221 13.554 134.816 13.969 135.912 15.416C136.809 16.555 136.71 19.555 136.71 22.66C136.71 25.557 139.101 27.108 141.095 27.108C142.689 27.108 143.288 27.005 143.487 27.005V26.695" fill="#040606"/>
<path d="M191.978 0V0.207C196.363 2.07 197.36 8.278 197.36 13.451C197.36 18.831 196.363 24.832 191.978 26.695V27.109C197.958 25.661 202.143 19.866 202.143 13.452C202.143 7.038 197.958 1.449 191.978 0Z" fill="#040606"/>
<path d="M186.496 26.695C182.31 24.833 181.113 18.832 181.113 13.451C181.113 8.278 182.31 2.07 186.496 0.206V0C180.715 1.449 176.329 7.036 176.329 13.451C176.329 19.866 180.715 25.66 186.496 27.108V26.695Z" fill="#040606"/>
<path d="M161.471 0V0.207C165.857 2.07 166.853 8.278 166.853 13.451C166.853 18.831 165.857 24.832 161.471 26.695V27.109C167.451 25.661 171.638 19.866 171.638 13.452C171.638 7.038 167.451 1.449 161.471 0Z" fill="#040606"/>
<path d="M155.989 26.695C151.803 24.833 150.607 18.832 150.607 13.451C150.607 8.278 151.803 2.07 155.989 0.206V0C150.209 1.449 145.823 7.036 145.823 13.451C145.823 19.866 150.208 25.66 155.989 27.108V26.695Z" fill="#040606"/>
<path d="M232.188 26.799H235.86V0.309998H232.188V26.799Z" fill="#040606"/>
<path d="M209.32 19.566H208.959C208.959 22.781 206.789 26.799 206.174 26.799H212.29C211.743 26.799 209.32 22.397 209.32 19.566Z" fill="#040606"/>
<path d="M222.884 26.799L224.632 22.038L213.277 0.311005H208.868L222.723 26.799H222.884Z" fill="#040606"/>
<path d="M2.0951 22.104L0 26.456L6.4298 27.146V26.752C4.22199 26.356 2.82911 24.188 2.30509 22.213L2.0951 22.104Z" fill="#040606"/>
<path d="M12.6929 11.853L8.90536 10.819C5.71599 9.991 3.12481 8.957 3.12481 5.853C3.12481 3.37 4.91744 1.507 7.3102 0.886V0.472C3.32324 1.3 0.334229 4.197 0.334229 7.921C0.334229 12.06 3.12481 13.923 7.51055 15.164L11.2972 16.199C14.2871 17.026 16.6779 18.268 16.6779 21.372C16.6779 23.855 15.0837 26.131 12.2941 26.752V27.167C16.4795 26.339 19.6689 23.441 19.6689 19.095C19.6699 14.958 16.8793 13.095 12.6929 11.853Z" fill="#040606"/>
<path d="M16.5595 5.55599L18.6729 1.16899L12.1892 0.472992V0.886992C14.4144 1.28799 15.8198 3.45599 16.3496 5.44699L16.5595 5.55599Z" fill="#040606"/>
<path d="M70.1921 0V0.207C74.5779 2.07 75.5749 8.278 75.5749 13.451C75.5749 18.831 74.5779 24.832 70.1921 26.695V27.109C76.1721 25.661 80.3584 19.866 80.3584 13.452C80.3584 7.038 76.1721 1.449 70.1921 0Z" fill="#040606"/>
<path d="M64.7103 26.695C60.5239 24.833 59.3275 18.832 59.3275 13.451C59.3275 8.278 60.5239 2.07 64.7103 0.206V0C58.9297 1.449 54.5439 7.036 54.5439 13.451C54.5439 19.866 58.9297 25.66 64.7103 27.108V26.695Z" fill="#040606"/>
<path d="M43.6379 0.311005V10.451C43.6379 12.107 42.4521 13.555 40.8473 13.555H40.647V13.762C42.4415 13.762 43.6369 15.004 43.6369 16.866V26.8H47.4746V0.311005H43.6379Z" fill="#040606"/>
<path d="M33.7567 13.555H33.5564C31.9564 13.555 30.5664 12.106 30.5664 10.451V0.311005H26.7471V26.799H30.5664V16.866C30.5664 15.003 31.9631 13.762 33.5564 13.762H33.7567V13.555Z" fill="#040606"/>
<path d="M106.174 26.799L108.165 21.212L101.387 0.311005H97.3003L105.979 26.799H106.174Z" fill="#040606"/>
<path d="M92.4253 26.799L94.5108 21.212L87.7332 0.311005H83.5479L92.2259 26.799H92.4253Z" fill="#040606"/>
<path d="M110.673 0.274002L115.618 0.298002L113.182 6.911L112.81 6.715C113.175 3.995 112.213 1.983 110.672 0.529002L110.673 0.274002Z" fill="#040606"/>
</g>
<defs>
<clipPath id="clip0">
<rect width="236" height="27" fill="white"/>
</clipPath>
</defs>
</svg>
